<svg width="74" height="18" viewBox="0 0 74 18" fill="none" xmlns="http://www.w3.org/2000/svg">
<path d="M4.779 1.534H7.56V12.082L8.865 12.604V13H3.474V12.604L4.779 12.082V1.534ZM10.827 2.047H1.287L2.421 1.741L0.855 4.567L0.288 4.45L0.675 0.282999H0.999L2.538 1.156L1.494 0.94H10.62L9.909 1.156L11.448 0.282999H11.772L12.15 4.45L11.583 4.567L10.017 1.741L10.827 2.047ZM15.0293 4.981C15.7193 4.981 16.3073 5.128 16.7933 5.422C17.2793 5.71 17.6603 6.127 17.9363 6.673C18.2123 7.213 18.3803 7.867 18.4403 8.635H12.7613L12.7703 7.87L17.2793 7.618L16.0913 8.113C16.0673 7.615 16.0073 7.198 15.9113 6.862C15.8153 6.526 15.6773 6.271 15.4973 6.097C15.3173 5.923 15.0893 5.836 14.8133 5.836C14.5433 5.836 14.3003 5.92 14.0843 6.088C13.8683 6.25 13.6973 6.526 13.5713 6.916C13.4453 7.306 13.3823 7.843 13.3823 8.527C13.3823 9.163 13.4963 9.703 13.7243 10.147C13.9523 10.585 14.2733 10.921 14.6873 11.155C15.1073 11.389 15.5933 11.506 16.1453 11.506C16.3973 11.506 16.6343 11.485 16.8563 11.443C17.0783 11.395 17.2973 11.323 17.5133 11.227C17.7293 11.125 17.9483 10.993 18.1703 10.831L18.4853 11.272C18.1553 11.65 17.8073 11.989 17.4413 12.289C17.0813 12.589 16.6973 12.823 16.2893 12.991C15.8813 13.153 15.4403 13.234 14.9663 13.234C14.1743 13.234 13.4843 13.06 12.8963 12.712C12.3083 12.358 11.8523 11.881 11.5283 11.281C11.2103 10.675 11.0513 9.991 11.0513 9.229C11.0513 8.461 11.2043 7.756 11.5103 7.114C11.8163 6.466 12.2663 5.95 12.8603 5.566C13.4543 5.176 14.1773 4.981 15.0293 4.981ZM24.3042 4.981C24.8802 4.981 25.3422 5.041 25.6902 5.161C26.0382 5.281 26.2902 5.437 26.4462 5.629C26.6082 5.821 26.6892 6.025 26.6892 6.241C26.6892 6.451 26.6382 6.637 26.5362 6.799C26.4402 6.961 26.3052 7.087 26.1312 7.177C25.9632 7.261 25.7742 7.303 25.5642 7.303C25.3602 7.303 25.1712 7.258 24.9972 7.168C24.8292 7.072 24.6732 6.958 24.5292 6.826C24.3852 6.688 24.2472 6.55 24.1152 6.412C23.9832 6.274 23.8482 6.16 23.7102 6.07C23.5722 5.98 23.4282 5.935 23.2782 5.935C23.0202 5.935 22.7772 6.013 22.5492 6.169C22.3272 6.325 22.1442 6.571 22.0002 6.907C21.8622 7.243 21.7932 7.684 21.7932 8.23C21.7932 8.962 21.9012 9.571 22.1172 10.057C22.3332 10.537 22.6392 10.9 23.0352 11.146C23.4312 11.386 23.8992 11.506 24.4392 11.506C24.8052 11.506 25.1442 11.455 25.4562 11.353C25.7682 11.245 26.0892 11.071 26.4192 10.831L26.7432 11.254C26.3652 11.716 25.9872 12.094 25.6092 12.388C25.2312 12.676 24.8472 12.889 24.4572 13.027C24.0732 13.165 23.6802 13.234 23.2782 13.234C22.5042 13.234 21.8322 13.063 21.2622 12.721C20.6922 12.379 20.2482 11.914 19.9302 11.326C19.6182 10.732 19.4622 10.066 19.4622 9.328C19.4622 8.722 19.5702 8.158 19.7862 7.636C20.0022 7.108 20.3172 6.646 20.7312 6.25C21.1452 5.848 21.6522 5.536 22.2522 5.314C22.8522 5.092 23.5362 4.981 24.3042 4.981ZM32.6687 12.64L33.6317 12.226V7.969C33.6317 7.699 33.5837 7.477 33.4877 7.303C33.3917 7.129 33.2477 7 33.0557 6.916C32.8637 6.832 32.6177 6.79 32.3177 6.79C31.9577 6.79 31.6277 6.844 31.3277 6.952C31.0337 7.054 30.7967 7.186 30.6167 7.348L30.2477 6.979C30.6317 6.559 30.9767 6.22 31.2827 5.962C31.5947 5.698 31.8857 5.497 32.1557 5.359C32.4317 5.215 32.7017 5.116 32.9657 5.062C33.2297 5.008 33.5057 4.981 33.7937 4.981C34.5857 4.981 35.1707 5.224 35.5487 5.71C35.9327 6.19 36.1247 6.934 36.1247 7.942V12.163L37.2407 12.64V13H32.6687V12.64ZM31.9847 13H27.2867V12.64L28.3847 12.163V2.533C28.2947 2.413 28.1867 2.302 28.0607 2.2C27.9407 2.092 27.7967 1.99 27.6287 1.894C27.4607 1.792 27.2597 1.69 27.0257 1.588V1.192L30.7517 0.174999H31.0397L30.8777 2.092V12.163L31.9847 12.64V13ZM40.8267 2.047L40.9437 0.94H44.5167C45.4467 0.94 46.1997 1.066 46.7757 1.318C47.3577 1.564 47.7807 1.903 48.0447 2.335C48.3147 2.761 48.4497 3.244 48.4497 3.784C48.4497 4.528 48.1947 5.155 47.6847 5.665C47.1747 6.175 46.4787 6.469 45.5967 6.547L45.6237 6.412C46.7277 6.472 47.5977 6.787 48.2337 7.357C48.8757 7.921 49.1967 8.638 49.1967 9.508C49.1967 10.174 49.0347 10.771 48.7107 11.299C48.3927 11.827 47.8917 12.244 47.2077 12.55C46.5297 12.85 45.6417 13 44.5437 13H40.9527L40.8087 11.893H43.6527C44.1987 11.893 44.6667 11.809 45.0567 11.641C45.4467 11.467 45.7467 11.2 45.9567 10.84C46.1667 10.474 46.2717 10.009 46.2717 9.445C46.2717 8.995 46.1817 8.599 46.0017 8.257C45.8217 7.909 45.5457 7.639 45.1737 7.447C44.8017 7.249 44.3187 7.15 43.7247 7.15H40.7997L40.8267 6.052H43.6437C44.2617 6.052 44.7507 5.878 45.1107 5.53C45.4707 5.182 45.6507 4.663 45.6507 3.973C45.6507 3.589 45.5697 3.253 45.4077 2.965C45.2517 2.677 45.0087 2.452 44.6787 2.29C44.3547 2.128 43.9437 2.047 43.4457 2.047H40.8267ZM38.0007 13V12.604L39.3057 12.082V1.858L38.0007 1.336V0.94H42.0867V13H38.0007ZM53.5977 12.163L54.7047 12.64V13H50.0067V12.64L51.1047 12.163V2.533C51.0147 2.413 50.9067 2.302 50.7807 2.2C50.6607 2.092 50.5167 1.99 50.3487 1.894C50.1807 1.792 49.9797 1.69 49.7457 1.588V1.192L53.4717 0.174999H53.7597L53.5977 2.092V12.163ZM59.7462 12.334C60.0462 12.334 60.3102 12.244 60.5382 12.064C60.7722 11.878 60.9522 11.581 61.0782 11.173C61.2102 10.759 61.2762 10.204 61.2762 9.508C61.2762 8.716 61.2132 8.053 61.0872 7.519C60.9612 6.979 60.7752 6.574 60.5292 6.304C60.2832 6.028 59.9832 5.89 59.6292 5.89C59.3292 5.89 59.0622 5.98 58.8282 6.16C58.6002 6.34 58.4202 6.637 58.2882 7.051C58.1622 7.459 58.0992 8.011 58.0992 8.707C58.0992 9.499 58.1592 10.165 58.2792 10.705C58.4052 11.239 58.5912 11.644 58.8372 11.92C59.0832 12.196 59.3862 12.334 59.7462 12.334ZM59.6202 13.234C58.7622 13.234 58.0212 13.066 57.3972 12.73C56.7792 12.394 56.3022 11.926 55.9662 11.326C55.6362 10.72 55.4712 10.021 55.4712 9.229C55.4712 8.401 55.6512 7.669 56.0112 7.033C56.3772 6.391 56.8812 5.89 57.5232 5.53C58.1652 5.164 58.9092 4.981 59.7552 4.981C60.6132 4.981 61.3512 5.149 61.9692 5.485C62.5932 5.821 63.0702 6.289 63.4002 6.889C63.7362 7.489 63.9042 8.188 63.9042 8.986C63.9042 9.808 63.7212 10.54 63.3552 11.182C62.9892 11.824 62.4852 12.328 61.8432 12.694C61.2012 13.054 60.4602 13.234 59.6202 13.234ZM68.5368 17.77C67.8708 17.77 67.2888 17.722 66.7908 17.626C66.2988 17.536 65.8908 17.404 65.5668 17.23C65.2428 17.056 64.9998 16.849 64.8378 16.609C64.6818 16.375 64.6038 16.114 64.6038 15.826C64.6038 15.598 64.6548 15.388 64.7568 15.196C64.8588 15.004 65.0388 14.824 65.2968 14.656C65.5548 14.494 65.9148 14.338 66.3768 14.188C66.8448 14.044 67.4418 13.903 68.1678 13.765H68.9688L68.9778 13.954C68.2998 14.056 67.7838 14.182 67.4298 14.332C67.0818 14.488 66.8448 14.662 66.7188 14.854C66.5988 15.052 66.5388 15.268 66.5388 15.502C66.5388 15.784 66.6288 16.03 66.8088 16.24C66.9888 16.45 67.2558 16.612 67.6098 16.726C67.9698 16.846 68.4228 16.906 68.9688 16.906C69.4968 16.906 69.9528 16.843 70.3368 16.717C70.7208 16.591 71.0148 16.42 71.2188 16.204C71.4288 15.988 71.5338 15.757 71.5338 15.511C71.5338 15.325 71.4828 15.166 71.3808 15.034C71.2848 14.908 71.1168 14.797 70.8768 14.701C70.6368 14.611 70.3038 14.533 69.8778 14.467C69.4518 14.401 68.9148 14.341 68.2668 14.287C67.6188 14.227 67.0908 14.134 66.6828 14.008C66.2808 13.882 65.9718 13.726 65.7558 13.54C65.5398 13.354 65.3928 13.15 65.3148 12.928C65.2368 12.7 65.2008 12.46 65.2068 12.208C65.2248 11.692 65.4348 11.275 65.8368 10.957C66.2388 10.633 66.8208 10.414 67.5828 10.3L67.9338 10.633C67.5738 10.675 67.3218 10.756 67.1778 10.876C67.0398 10.99 66.9708 11.14 66.9708 11.326C66.9708 11.458 67.0038 11.572 67.0698 11.668C67.1358 11.758 67.2618 11.836 67.4478 11.902C67.6338 11.968 67.9008 12.022 68.2488 12.064C68.6028 12.106 69.0618 12.145 69.6258 12.181C70.2618 12.223 70.8078 12.298 71.2638 12.406C71.7258 12.508 72.1068 12.655 72.4068 12.847C72.7068 13.033 72.9288 13.267 73.0728 13.549C73.2168 13.831 73.2888 14.167 73.2888 14.557C73.2948 15.157 73.1118 15.7 72.7398 16.186C72.3678 16.672 71.8278 17.056 71.1198 17.338C70.4118 17.626 69.5508 17.77 68.5368 17.77ZM68.5908 10.804C67.8408 10.804 67.1958 10.678 66.6558 10.426C66.1218 10.174 65.7108 9.829 65.4228 9.391C65.1348 8.953 64.9908 8.455 64.9908 7.897C64.9908 7.303 65.1438 6.79 65.4498 6.358C65.7558 5.92 66.1818 5.581 66.7278 5.341C67.2738 5.101 67.9008 4.981 68.6088 4.981C69.2148 4.981 69.7428 5.068 70.1928 5.242C70.6428 5.416 71.0148 5.647 71.3088 5.935C71.6088 6.223 71.8308 6.538 71.9748 6.88C72.1248 7.216 72.1998 7.549 72.1998 7.879C72.1998 8.467 72.0468 8.983 71.7408 9.427C71.4348 9.865 71.0088 10.204 70.4628 10.444C69.9228 10.684 69.2988 10.804 68.5908 10.804ZM68.6628 9.994C68.9988 9.994 69.2628 9.847 69.4548 9.553C69.6468 9.259 69.7428 8.782 69.7428 8.122C69.7428 7.306 69.6288 6.715 69.4008 6.349C69.1788 5.977 68.8878 5.791 68.5278 5.791C68.1978 5.791 67.9338 5.935 67.7358 6.223C67.5438 6.511 67.4478 6.988 67.4478 7.654C67.4478 8.476 67.5588 9.073 67.7808 9.445C68.0088 9.811 68.3028 9.994 68.6628 9.994ZM69.7968 5.665L69.6258 5.107C70.1358 5.173 70.5708 5.2 70.9308 5.188C71.2908 5.176 71.6028 5.149 71.8668 5.107C72.1308 5.059 72.3648 5.011 72.5688 4.963C72.7728 4.915 72.9678 4.891 73.1538 4.891C73.3578 4.891 73.5168 4.954 73.6308 5.08C73.7448 5.2 73.8018 5.392 73.8018 5.656C73.8018 6.01 73.7118 6.271 73.5318 6.439C73.3578 6.607 73.1628 6.691 72.9468 6.691C72.7368 6.691 72.5418 6.622 72.3618 6.484C72.1878 6.346 71.9928 6.196 71.7768 6.034C71.5668 5.866 71.3058 5.737 70.9938 5.647C70.6818 5.557 70.2828 5.563 69.7968 5.665Z" fill="#FFFFFF"/>
</svg>
